<svg width="172" height="24" viewBox="0 0 172 24" fill="none" xmlns="http://www.w3.org/2000/svg">
<g clip-path="url(#clip0_1892_637)">
<path d="M21.013 1.07861H3.72495C3.23417 1.07861 2.83507 1.47771 2.83507 1.9712V15.6701C2.28495 15.8615 1.88855 16.382 1.88855 16.9968V21.6134C1.88855 22.3874 2.51956 23.0157 3.2908 23.0157H5.29709C6.07102 23.0157 6.69934 22.3847 6.69934 21.6134V16.9968C6.69934 16.3847 6.30563 15.8615 5.75552 15.6701V13.6179H21.013C21.5065 13.6179 21.9056 13.2188 21.9056 12.7281V1.9712C21.9056 1.47771 21.5065 1.07861 21.013 1.07861ZM20.6921 7.02738H13.1712V2.2867H20.6921V7.02738ZM5.18113 7.66648H12.5348V12.4072H5.18113V7.66648ZM13.1712 7.66648H20.6921V12.4072H13.1712V7.66648ZM12.5348 7.02738H5.18113V2.2867H12.5348V7.02738ZM4.54473 16.1663H4.04316V2.2894H4.54473V16.1663ZM5.29709 16.8027C5.40226 16.8027 5.48855 16.889 5.48855 16.9941V21.6107C5.48855 21.7186 5.40226 21.8022 5.29709 21.8022H3.29349C3.18563 21.8022 3.09934 21.7186 3.09934 21.6107V16.9941C3.09934 16.889 3.18563 16.8027 3.29349 16.8027H5.29709Z" fill="#2F1A45"/>
<path d="M12.532 2.29224H5.1756V7.03021H12.532V2.29224Z" fill="#2F1A45"/>
<path d="M20.7166 7.67188H13.1633V12.4099H20.7166V7.67188Z" fill="#2F1A45"/>
</g>
<path d="M43.4 7.14H39.46V10.76H42.74V13.34H39.46V19.5H36.92V4.5H43.34L43.4 7.14ZM52.9395 12C52.9395 18.24 51.5995 19.74 48.5195 19.74C45.5595 19.74 44.1195 18.04 44.1195 12C44.1195 5.94 45.4595 4.28 48.5195 4.28C51.5995 4.28 52.9395 5.94 52.9395 12ZM50.2995 12C50.2995 7.54 49.8395 6.94 48.5195 6.94C47.2195 6.94 46.7795 7.56 46.7795 12C46.7795 16.48 47.2395 17.12 48.5395 17.12C49.8595 17.12 50.2995 16.46 50.2995 12ZM62.9591 12C62.9591 18.24 61.6191 19.74 58.5391 19.74C55.5791 19.74 54.1391 18.04 54.1391 12C54.1391 5.94 55.4791 4.28 58.5391 4.28C61.6191 4.28 62.9591 5.94 62.9591 12ZM60.3191 12C60.3191 7.54 59.8591 6.94 58.5391 6.94C57.2391 6.94 56.7991 7.56 56.7991 12C56.7991 16.48 57.2591 17.12 58.5591 17.12C59.8791 17.12 60.3191 16.46 60.3191 12ZM71.1466 7.12H68.5666V19.5H65.9666V7.12H63.3866L63.4466 4.5H71.1066L71.1466 7.12ZM80.1925 15.16C80.1925 17.84 78.9525 19.5 76.0725 19.5H72.2325V4.5H76.1525C78.5725 4.5 79.8325 5.8 79.8325 8.3C79.8325 9.9 79.2525 10.94 78.2925 11.46V11.5C79.4525 11.98 80.1925 13.04 80.1925 15.16ZM77.5725 14.96C77.5725 13.48 77.1925 12.96 76.0525 12.96H74.7125V17.04H76.1725C77.1125 17.04 77.5725 16.62 77.5725 14.96ZM77.3525 8.76C77.3525 7.36 76.9725 7 76.0525 7H74.7325V10.6H76.0125C77.0325 10.6 77.3525 10.1 77.3525 8.76ZM87.2713 19.5L86.7913 16.44H83.7713L83.2913 19.5H80.6513L83.6713 4.5H87.0113L90.0513 19.5H87.2713ZM85.2713 6.62L85.0513 8.24L84.1513 13.92H86.4112L85.5312 8.24L85.3313 6.62H85.2713ZM93.6797 16.9H97.3997L97.3197 19.5H91.0997V4.5H93.6797V16.9ZM101.102 16.9H104.822L104.742 19.5H98.5216V4.5H101.102V16.9ZM109.756 19.5V4.5H112.356V19.5H109.756ZM122.501 19.5H120.541L117.181 11.42L116.581 9.9L116.541 9.92L116.561 11.54V19.5H114.361V4.5H116.601L119.701 12.16L120.281 13.66H120.341L120.301 12.04L120.321 4.5H122.501V19.5ZM136.494 12C136.494 16.8 135.694 18.8 133.934 19.46L135.854 21.3L133.414 22.3L131.834 19.74C129.034 19.64 127.674 17.88 127.674 12C127.674 5.94 129.014 4.28 132.074 4.28C135.154 4.28 136.494 5.94 136.494 12ZM133.854 12C133.854 7.54 133.394 6.94 132.074 6.94C130.774 6.94 130.334 7.56 130.334 12C130.334 16.48 130.794 17.12 132.094 17.12C133.414 17.12 133.854 16.46 133.854 12ZM143.482 19.5L143.002 16.44H139.982L139.502 19.5H136.862L139.882 4.5H143.222L146.262 19.5H143.482ZM141.482 6.62L141.262 8.24L140.362 13.92H142.622L141.742 8.24L141.542 6.62H141.482ZM153.471 7.12H150.891V19.5H148.291V7.12H145.711L145.771 4.5H153.431L153.471 7.12ZM159.556 19.5L159.076 16.44H156.056L155.576 19.5H152.936L155.956 4.5H159.296L162.336 19.5H159.556ZM157.556 6.62L157.336 8.24L156.436 13.92H158.696L157.816 8.24L157.616 6.62H157.556ZM170.965 9C170.965 11.14 170.385 12.4 169.305 12.88L171.565 19.5H168.725L166.965 13.4H165.925V19.5H163.385V4.5H166.765C169.645 4.5 170.965 5.7 170.965 9ZM168.345 9.06C168.345 7.38 167.945 7 166.925 7H165.925V11.14H166.925C167.945 11.14 168.345 10.82 168.345 9.06Z" fill="#2F1A45"/>
<defs>
<clipPath id="clip0_1892_637">
<rect width="20.0144" height="21.9371" fill="white" transform="translate(1.88763 1.07861)"/>
</clipPath>
</defs>
</svg>
