<svg width="172" height="24" viewBox="0 0 172 24" fill="none" xmlns="http://www.w3.org/2000/svg">
<g clip-path="url(#clip0_1892_644)">
<g clip-path="url(#clip1_1892_644)">
<path d="M4.11155 19.9512C5.13801 20.9777 6.3336 21.7825 7.66334 22.3453C9.04264 22.9256 10.5065 23.2231 12.0141 23.2231C13.5217 23.2231 14.9885 22.9256 16.3649 22.3453C17.6976 21.7796 18.8932 20.9748 19.9167 19.9512C20.9432 18.9248 21.7509 17.7292 22.3108 16.3965C22.894 15.0172 23.1915 13.5563 23.1915 12.0457C23.1915 10.5352 22.8969 9.07133 22.3108 7.69494C21.748 6.36229 20.9432 5.1667 19.9167 4.14024C18.8932 3.11669 17.6976 2.30894 16.3649 1.74613C14.9856 1.16292 13.5217 0.865479 12.0141 0.865479C10.5065 0.865479 9.04264 1.16292 7.66334 1.74613C6.3336 2.30894 5.13801 3.11669 4.11155 4.14024C3.08509 5.1667 2.28025 6.35938 1.71453 7.69494C1.13132 9.07133 0.836792 10.5352 0.836792 12.0457C0.836792 13.5563 1.13132 15.0201 1.71453 16.3965C2.27734 17.7292 3.08217 18.9248 4.11155 19.9512ZM5.09427 18.9685C4.47898 18.3532 3.957 17.6709 3.53125 16.936L4.42066 16.4636C5.19342 17.0993 6.12365 17.6446 7.2755 18.1812L9.16512 21.4151C7.64292 20.9544 6.24904 20.1233 5.09135 18.9685M4.99804 5.6391L5.00679 5.72659L8.51775 5.33291L9.43631 7.89032L7.02763 12.0749L4.65977 12.209L3.16091 8.94302C3.72371 7.70369 4.23986 6.77929 4.99512 5.6391M13.6646 8.26358L16.1141 12.6902C15.5484 13.8275 14.9565 14.539 14.2216 15.5859H9.53838C8.68397 13.947 8.57607 13.7575 7.70416 12.3519L10.037 8.29565C11.1918 8.20525 12.4136 8.12069 13.6646 8.26358ZM15.3385 5.49622L19.0856 5.98028C19.8234 7.09131 20.3104 7.94572 20.9198 9.11799L19.3947 12.6144L16.7207 12.2819L14.3178 7.94572L15.3385 5.4933V5.49622ZM13.5276 21.3276C12.1978 21.4822 11.2793 21.4064 9.94371 21.313L8.0016 17.9916L9.3984 16.309H14.2245L15.98 18.3503L13.4372 21.246L13.5247 21.3247L13.5276 21.3276ZM18.934 18.9685C17.6451 20.2574 16.0587 21.141 14.3324 21.558L14.1954 21.4851L16.8169 18.499C17.9717 17.8779 18.6074 17.4492 19.488 16.7406L20.2608 17.3209C19.8817 17.91 19.4385 18.4611 18.934 18.9656M20.6311 16.6969L19.8234 16.0874C19.9984 14.8539 19.9896 14.087 19.9371 13.1772L21.4943 9.60206C21.6984 10.3923 21.8005 11.2088 21.8005 12.0457C21.8005 13.6962 21.3952 15.2826 20.6311 16.6969ZM18.934 5.12587C18.934 5.12587 18.9486 5.14337 18.9573 5.1492L18.9398 5.23085L15.0673 4.7322C14.2887 4.0615 13.5188 3.55411 12.3903 3.10503V2.26811C14.8631 2.35851 17.1727 3.36748 18.9311 5.12587M11.67 2.26811V3.11086C10.5415 3.54827 9.78333 3.86904 8.73062 4.58057L5.25465 4.97132C7.00139 3.30332 9.25843 2.35268 11.67 2.26811ZM2.58352 9.41251L4.08822 12.6873L4.13488 12.6669C4.0474 13.6554 4.02407 14.6002 4.12905 15.7987L3.19299 16.3003C2.5602 14.9939 2.22776 13.5475 2.22776 12.0486C2.22776 11.1447 2.34732 10.2611 2.58352 9.41251Z" fill="#2F1A45"/>
</g>
</g>
<path d="M43.4 7.14H39.46V10.76H42.74V13.34H39.46V19.5H36.92V4.5H43.34L43.4 7.14ZM52.9395 12C52.9395 18.24 51.5995 19.74 48.5195 19.74C45.5595 19.74 44.1195 18.04 44.1195 12C44.1195 5.94 45.4595 4.28 48.5195 4.28C51.5995 4.28 52.9395 5.94 52.9395 12ZM50.2995 12C50.2995 7.54 49.8395 6.94 48.5195 6.94C47.2195 6.94 46.7795 7.56 46.7795 12C46.7795 16.48 47.2395 17.12 48.5395 17.12C49.8595 17.12 50.2995 16.46 50.2995 12ZM62.9591 12C62.9591 18.24 61.6191 19.74 58.5391 19.74C55.5791 19.74 54.1391 18.04 54.1391 12C54.1391 5.94 55.4791 4.28 58.5391 4.28C61.6191 4.28 62.9591 5.94 62.9591 12ZM60.3191 12C60.3191 7.54 59.8591 6.94 58.5391 6.94C57.2391 6.94 56.7991 7.56 56.7991 12C56.7991 16.48 57.2591 17.12 58.5591 17.12C59.8791 17.12 60.3191 16.46 60.3191 12ZM71.1466 7.12H68.5666V19.5H65.9666V7.12H63.3866L63.4466 4.5H71.1066L71.1466 7.12ZM80.1925 15.16C80.1925 17.84 78.9525 19.5 76.0725 19.5H72.2325V4.5H76.1525C78.5725 4.5 79.8325 5.8 79.8325 8.3C79.8325 9.9 79.2525 10.94 78.2925 11.46V11.5C79.4525 11.98 80.1925 13.04 80.1925 15.16ZM77.5725 14.96C77.5725 13.48 77.1925 12.96 76.0525 12.96H74.7125V17.04H76.1725C77.1125 17.04 77.5725 16.62 77.5725 14.96ZM77.3525 8.76C77.3525 7.36 76.9725 7 76.0525 7H74.7325V10.6H76.0125C77.0325 10.6 77.3525 10.1 77.3525 8.76ZM87.2713 19.5L86.7913 16.44H83.7713L83.2913 19.5H80.6513L83.6713 4.5H87.0113L90.0513 19.5H87.2713ZM85.2713 6.62L85.0513 8.24L84.1513 13.92H86.4112L85.5312 8.24L85.3313 6.62H85.2713ZM93.6797 16.9H97.3997L97.3197 19.5H91.0997V4.5H93.6797V16.9ZM101.102 16.9H104.822L104.742 19.5H98.5216V4.5H101.102V16.9ZM109.756 19.5V4.5H112.356V19.5H109.756ZM122.501 19.5H120.541L117.181 11.42L116.581 9.9L116.541 9.92L116.561 11.54V19.5H114.361V4.5H116.601L119.701 12.16L120.281 13.66H120.341L120.301 12.04L120.321 4.5H122.501V19.5ZM136.494 12C136.494 16.8 135.694 18.8 133.934 19.46L135.854 21.3L133.414 22.3L131.834 19.74C129.034 19.64 127.674 17.88 127.674 12C127.674 5.94 129.014 4.28 132.074 4.28C135.154 4.28 136.494 5.94 136.494 12ZM133.854 12C133.854 7.54 133.394 6.94 132.074 6.94C130.774 6.94 130.334 7.56 130.334 12C130.334 16.48 130.794 17.12 132.094 17.12C133.414 17.12 133.854 16.46 133.854 12ZM143.482 19.5L143.002 16.44H139.982L139.502 19.5H136.862L139.882 4.5H143.222L146.262 19.5H143.482ZM141.482 6.62L141.262 8.24L140.362 13.92H142.622L141.742 8.24L141.542 6.62H141.482ZM153.471 7.12H150.891V19.5H148.291V7.12H145.711L145.771 4.5H153.431L153.471 7.12ZM159.556 19.5L159.076 16.44H156.056L155.576 19.5H152.936L155.956 4.5H159.296L162.336 19.5H159.556ZM157.556 6.62L157.336 8.24L156.436 13.92H158.696L157.816 8.24L157.616 6.62H157.556ZM170.965 9C170.965 11.14 170.385 12.4 169.305 12.88L171.565 19.5H168.725L166.965 13.4H165.925V19.5H163.385V4.5H166.765C169.645 4.5 170.965 5.7 170.965 9ZM168.345 9.06C168.345 7.38 167.945 7 166.925 7H165.925V11.14H166.925C167.945 11.14 168.345 10.82 168.345 9.06Z" fill="#2F1A45"/>
<defs>
<clipPath id="clip0_1892_644">
<rect width="24" height="24" fill="white"/>
</clipPath>
<clipPath id="clip1_1892_644">
<rect width="22.3547" height="22.3576" fill="white" transform="translate(0.836365 0.868408)"/>
</clipPath>
</defs>
</svg>
