<svg width="172" height="24" viewBox="0 0 172 24" fill="none" xmlns="http://www.w3.org/2000/svg">
<g clip-path="url(#clip0_1892_655)">
<path d="M23.0148 13.9748L11.0243 8.51815L10.57 8.31053L9.79811 7.9588C9.0629 7.62173 8.28372 7.42632 7.48501 7.3677C6.93299 7.32862 6.38097 7.35793 5.83872 7.45563C5.55783 7.08925 5.19144 6.7937 4.76155 6.5983C3.33754 5.95102 1.65217 6.58364 1.0049 8.00521C0.755755 8.55967 0.687363 9.16543 0.811934 9.76141C0.882768 10.0985 1.00978 10.4136 1.19053 10.6969C1.07573 10.8923 0.973143 11.0926 0.880325 11.3002C0.499286 12.1283 0.296554 13.0051 0.269686 13.9064C0.24526 14.7784 0.389371 15.6333 0.697133 16.4516C1.00245 17.2723 1.45921 18.0124 2.04787 18.6523C2.65851 19.3167 3.38883 19.8443 4.21442 20.2204C5.04245 20.5966 5.91688 20.7993 6.82063 20.8238C7.69018 20.8482 8.54752 20.7041 9.36578 20.3963C10.1865 20.0886 10.9241 19.6342 11.5665 19.0456C12.1894 18.474 12.6925 17.7974 13.0614 17.0305L21.4125 18.0881L22.0304 18.1638L22.2894 17.5971L23.4276 15.0935L23.7793 14.3217L23.0075 13.9724L23.0148 13.9748ZM2.05275 8.48395C2.43624 7.63883 3.43769 7.26267 4.28281 7.6486C4.56615 7.77561 4.80552 7.98078 4.9765 8.23481C4.91788 8.25435 4.85437 8.27878 4.78598 8.30564C4.63454 8.10047 4.43669 7.93682 4.20221 7.82935C3.45478 7.48739 2.57058 7.81958 2.22862 8.567C2.01367 9.03597 2.06497 9.5831 2.34342 10.0057C2.29945 10.057 2.25549 10.1107 2.21152 10.162C1.86468 9.67836 1.79629 9.04086 2.05031 8.48395M4.20953 8.55723C3.76743 8.7795 3.26671 9.09703 2.78308 9.54891C2.68049 9.31931 2.67316 9.05063 2.78308 8.81614C2.98337 8.37159 3.50852 8.17619 3.95306 8.37892C4.05077 8.42533 4.1387 8.48395 4.21198 8.55967M21.3392 16.9206L12.3359 15.7823L12.2529 16.0095C12.204 16.1438 12.1503 16.2757 12.0917 16.4052C10.8167 19.2068 7.49722 20.4525 4.6956 19.1775C1.89155 17.9 0.648282 14.5806 1.9233 11.7765C2.03321 11.5396 2.15778 11.3076 2.29945 11.0853C2.30922 11.0706 2.31899 11.056 2.32876 11.0389C2.37761 10.9631 2.42891 10.8874 2.48264 10.8166L2.60233 10.6505C2.66584 10.5699 2.73179 10.4893 2.79773 10.4136L2.88078 10.3256L2.86368 10.3379C3.3986 9.74187 3.98482 9.36083 4.43425 9.12634C4.54905 9.06772 4.66141 9.01399 4.76644 8.96758L4.73957 8.98712C4.75422 8.97979 4.76888 8.97246 4.78598 8.96758L5.03512 8.85766C5.11084 8.82835 5.17923 8.80393 5.24518 8.78439L5.50409 8.71111C6.67163 8.38381 7.91734 8.44731 9.04092 8.88942L8.82108 9.39014C9.44394 9.62951 10.0057 9.98857 10.4845 10.438L10.824 9.69058L22.2625 14.8957L21.3416 16.9181L21.3392 16.9206ZM8.782 10.1937C6.63255 9.21672 4.08741 10.1693 3.10794 12.3188C2.13092 14.4682 3.08351 17.0134 5.23297 17.9904C7.38242 18.9674 9.92756 18.0148 10.9046 15.8654C11.8841 13.7159 10.9315 11.1708 8.782 10.1913M10.3526 15.6138C9.51477 17.4604 7.32868 18.2786 5.48455 17.4384C3.63797 16.5981 2.81972 14.4145 3.65996 12.5679C4.5002 10.7213 6.68385 9.90308 8.53042 10.7433C10.377 11.5811 11.1953 13.7672 10.355 15.6113M8.0297 11.84C6.78888 11.2758 5.3209 11.8254 4.75667 13.0662C4.19244 14.307 4.74201 15.775 5.98283 16.3392C7.22365 16.9035 8.69163 16.3539 9.2583 15.1131C9.82253 13.8722 9.27296 12.4043 8.03214 11.8376M8.70628 14.8639C8.28128 15.7994 7.17236 16.2147 6.23686 15.7896C5.30136 15.3646 4.88612 14.2557 5.31113 13.3202C5.73858 12.3847 6.8475 11.9695 7.783 12.3945C8.7185 12.8219 9.13373 13.9309 8.70873 14.8664M10.5993 6.83767L12.2309 3.8382C12.3555 3.6086 12.6437 3.52311 12.8733 3.65013C13.1053 3.77714 13.1884 4.06292 13.0638 4.29252L11.4322 7.28954C11.3467 7.44831 11.1855 7.53868 11.0169 7.53868C10.9412 7.53868 10.8631 7.51914 10.7898 7.48006C10.5602 7.35549 10.4747 7.06727 10.5993 6.83767ZM8.46203 3.51334C8.42051 3.25443 8.59637 3.01262 8.85528 2.9711C9.11419 2.92957 9.35601 3.10788 9.39753 3.36435L9.87627 6.38335C9.91535 6.64226 9.74193 6.88652 9.48302 6.9256C9.45859 6.93048 9.43172 6.93293 9.4073 6.93293C9.18014 6.93293 8.97741 6.76683 8.93833 6.53235L8.45959 3.51334H8.46203ZM12.0819 7.64127L15.2768 6.06338C15.5137 5.94858 15.797 6.04628 15.9143 6.27832C16.0291 6.51525 15.9338 6.79859 15.6993 6.91339L12.5045 8.49128C12.4361 8.52548 12.3652 8.54013 12.2944 8.54013C12.1185 8.54013 11.95 8.44243 11.8694 8.27633C11.7546 8.04185 11.8499 7.75851 12.0843 7.64127" fill="#2F1A45"/>
</g>
<path d="M43.4 7.14H39.46V10.76H42.74V13.34H39.46V19.5H36.92V4.5H43.34L43.4 7.14ZM52.9395 12C52.9395 18.24 51.5995 19.74 48.5195 19.74C45.5595 19.74 44.1195 18.04 44.1195 12C44.1195 5.94 45.4595 4.28 48.5195 4.28C51.5995 4.28 52.9395 5.94 52.9395 12ZM50.2995 12C50.2995 7.54 49.8395 6.94 48.5195 6.94C47.2195 6.94 46.7795 7.56 46.7795 12C46.7795 16.48 47.2395 17.12 48.5395 17.12C49.8595 17.12 50.2995 16.46 50.2995 12ZM62.9591 12C62.9591 18.24 61.6191 19.74 58.5391 19.74C55.5791 19.74 54.1391 18.04 54.1391 12C54.1391 5.94 55.4791 4.28 58.5391 4.28C61.6191 4.28 62.9591 5.94 62.9591 12ZM60.3191 12C60.3191 7.54 59.8591 6.94 58.5391 6.94C57.2391 6.94 56.7991 7.56 56.7991 12C56.7991 16.48 57.2591 17.12 58.5591 17.12C59.8791 17.12 60.3191 16.46 60.3191 12ZM71.1466 7.12H68.5666V19.5H65.9666V7.12H63.3866L63.4466 4.5H71.1066L71.1466 7.12ZM80.1925 15.16C80.1925 17.84 78.9525 19.5 76.0725 19.5H72.2325V4.5H76.1525C78.5725 4.5 79.8325 5.8 79.8325 8.3C79.8325 9.9 79.2525 10.94 78.2925 11.46V11.5C79.4525 11.98 80.1925 13.04 80.1925 15.16ZM77.5725 14.96C77.5725 13.48 77.1925 12.96 76.0525 12.96H74.7125V17.04H76.1725C77.1125 17.04 77.5725 16.62 77.5725 14.96ZM77.3525 8.76C77.3525 7.36 76.9725 7 76.0525 7H74.7325V10.6H76.0125C77.0325 10.6 77.3525 10.1 77.3525 8.76ZM87.2713 19.5L86.7913 16.44H83.7713L83.2913 19.5H80.6513L83.6713 4.5H87.0113L90.0513 19.5H87.2713ZM85.2713 6.62L85.0513 8.24L84.1513 13.92H86.4112L85.5312 8.24L85.3313 6.62H85.2713ZM93.6797 16.9H97.3997L97.3197 19.5H91.0997V4.5H93.6797V16.9ZM101.102 16.9H104.822L104.742 19.5H98.5216V4.5H101.102V16.9ZM109.756 19.5V4.5H112.356V19.5H109.756ZM122.501 19.5H120.541L117.181 11.42L116.581 9.9L116.541 9.92L116.561 11.54V19.5H114.361V4.5H116.601L119.701 12.16L120.281 13.66H120.341L120.301 12.04L120.321 4.5H122.501V19.5ZM136.494 12C136.494 16.8 135.694 18.8 133.934 19.46L135.854 21.3L133.414 22.3L131.834 19.74C129.034 19.64 127.674 17.88 127.674 12C127.674 5.94 129.014 4.28 132.074 4.28C135.154 4.28 136.494 5.94 136.494 12ZM133.854 12C133.854 7.54 133.394 6.94 132.074 6.94C130.774 6.94 130.334 7.56 130.334 12C130.334 16.48 130.794 17.12 132.094 17.12C133.414 17.12 133.854 16.46 133.854 12ZM143.482 19.5L143.002 16.44H139.982L139.502 19.5H136.862L139.882 4.5H143.222L146.262 19.5H143.482ZM141.482 6.62L141.262 8.24L140.362 13.92H142.622L141.742 8.24L141.542 6.62H141.482ZM153.471 7.12H150.891V19.5H148.291V7.12H145.711L145.771 4.5H153.431L153.471 7.12ZM159.556 19.5L159.076 16.44H156.056L155.576 19.5H152.936L155.956 4.5H159.296L162.336 19.5H159.556ZM157.556 6.62L157.336 8.24L156.436 13.92H158.696L157.816 8.24L157.616 6.62H157.556ZM170.965 9C170.965 11.14 170.385 12.4 169.305 12.88L171.565 19.5H168.725L166.965 13.4H165.925V19.5H163.385V4.5H166.765C169.645 4.5 170.965 5.7 170.965 9ZM168.345 9.06C168.345 7.38 167.945 7 166.925 7H165.925V11.14H166.925C167.945 11.14 168.345 10.82 168.345 9.06Z" fill="#2F1A45"/>
<defs>
<clipPath id="clip0_1892_655">
<rect width="23.5145" height="17.8624" fill="white" transform="translate(0.269653 2.96631)"/>
</clipPath>
</defs>
</svg>
