<svg width="398" height="279" viewBox="0 0 398 279" fill="none" xmlns="http://www.w3.org/2000/svg">
<g filter="url(#filter0_d_1_1333)">
<path fill-rule="evenodd" clip-rule="evenodd" d="M138 195C134.686 195 132 197.686 132 201V211.512C135.576 212.748 138.138 216.081 138.138 220C138.138 223.919 135.576 227.252 132 228.488V233C132 236.314 134.686 239 138 239H259C262.314 239 265 236.314 265 233V228.488C261.424 227.253 258.861 223.919 258.861 220C258.861 216.081 261.424 212.747 265 211.512V201C265 197.686 262.314 195 259 195H138Z" fill="#FFB92E"/>
<path d="M170.5 217.5C170.5 216.12 171.62 215 173 215V214C173 210 172 209 168 209H158C154 209 153 210 153 214V214.5C154.38 214.5 155.5 215.62 155.5 217C155.5 218.38 154.38 219.5 153 219.5V220C153 224 154 225 158 225H168C172 225 173 224 173 220C171.62 220 170.5 218.88 170.5 217.5Z" stroke="#2F1A45" stroke-width="1.5" stroke-linecap="round" stroke-linejoin="round"/>
<path d="M161 209L161 225" stroke="#2F1A45" stroke-width="1.5" stroke-linecap="round" stroke-linejoin="round" stroke-dasharray="5 5"/>
<line x1="186" y1="196" x2="186" y2="238" stroke="#2F1A45" stroke-width="2" stroke-linecap="round" stroke-dasharray="4 4"/>
<path d="M202.128 212.358H199.806V223.5H197.466V212.358H195.144L195.198 210H202.092L202.128 212.358ZM203.249 223.5V210H205.589V223.5H203.249ZM213.298 210.27L213.082 212.502C212.704 212.286 212.092 212.142 211.552 212.142C210.058 212.142 209.5 213.024 209.5 216.642C209.5 220.494 210.076 221.43 211.624 221.43C212.2 221.43 212.704 221.286 213.136 221.034L213.334 223.23C212.848 223.518 211.966 223.716 211.246 223.716C208.384 223.716 207.106 221.808 207.106 216.624C207.106 211.746 208.42 209.784 211.282 209.784C211.93 209.784 212.848 210 213.298 210.27ZM222.11 223.5H219.536L217.466 217.578H216.764V223.5H214.478V210H216.746V215.544H217.52L219.536 210H222.02L219.626 216.48L222.11 223.5ZM225.413 221.196H229.175L229.121 223.5H223.127V210H228.941L228.977 212.34H225.413V215.4H228.401V217.614H225.413V221.196ZM236.651 212.358H234.329V223.5H231.989V212.358H229.667L229.721 210H236.615L236.651 212.358ZM243.426 219.666C243.426 222.258 242.202 223.716 239.916 223.716C238.908 223.716 237.9 223.41 237.18 222.888L237.522 220.692C238.206 221.142 238.926 221.412 239.754 221.412C240.762 221.412 241.212 220.872 241.212 219.774C241.212 217.362 237.198 217.722 237.198 213.654C237.198 211.368 238.386 209.802 240.654 209.802C241.59 209.802 242.418 210 243.084 210.378L242.814 212.574C242.202 212.304 241.536 212.16 240.906 212.16C239.79 212.16 239.412 212.718 239.412 213.582C239.412 215.904 243.426 215.598 243.426 219.666Z" fill="#2F1A45"/>
</g>
<g clip-path="url(#clip0_1_1333)">
<rect width="397" height="279" rx="12" fill="#F4EAF7"/>
<g opacity="0.05" clip-path="url(#clip1_1_1333)">
<path d="M121.992 -26.5576V102.616C121.992 105.552 123.324 108.325 125.608 110.147L192.139 163.219C195.619 165.993 200.54 166.02 204.075 163.301L270.85 111.425C273.215 109.603 274.602 106.776 274.602 103.812V-26.5576H121.992Z" stroke="#8A1826" stroke-width="6.74279" stroke-miterlimit="10"/>
<path d="M131.641 102.589V-16.9329H264.974V103.785L198.171 155.661L131.641 102.589Z" fill="#8A1826"/>
<path d="M164.135 87.5535C168.539 91.9581 173.651 95.411 179.388 97.858C185.315 100.359 191.595 101.61 198.066 101.61C204.537 101.61 210.818 100.359 216.745 97.858C222.454 95.4382 227.593 91.9581 231.998 87.5535C236.402 83.1489 239.855 78.0375 242.275 72.3007C244.776 66.3735 246.054 60.0929 246.054 53.622C246.054 47.1511 244.803 40.8706 242.275 34.9434C239.855 29.2338 236.402 24.0951 231.998 19.6906C227.593 15.286 222.482 11.833 216.745 9.41326C210.845 6.9119 204.537 5.63403 198.066 5.63403C191.595 5.63403 185.315 6.88471 179.388 9.41326C173.678 11.833 168.539 15.286 164.135 19.6906C159.73 24.0951 156.277 29.2066 153.857 34.9434C151.356 40.8434 150.078 47.1511 150.078 53.622C150.078 60.0929 151.356 66.3735 153.857 72.3007C156.277 78.0103 159.73 83.1489 164.135 87.5535ZM168.349 83.3393C165.712 80.702 163.482 77.7656 161.661 74.6117L165.467 72.5725C168.811 75.2914 172.781 77.6296 177.729 79.9407L185.858 93.8341C179.306 91.8493 173.324 88.2876 168.349 83.3121M167.941 26.1071L167.995 26.4606L183.058 24.7749L187 35.7591L176.669 53.7036L166.5 54.2746L160.056 40.2452C162.476 34.9162 164.678 30.9467 167.941 26.0527M205.135 37.3904L215.657 56.3953C213.237 61.2621 210.709 64.3072 207.528 68.8205H187.435C183.765 61.7786 183.303 60.963 179.551 54.9271L189.583 37.5263C194.532 37.1457 199.779 36.7651 205.135 37.3904ZM212.34 25.5089L228.409 27.5753C231.59 32.3605 233.683 36.0038 236.293 41.0609L229.741 56.0962L218.267 54.6824L207.963 36.0582L212.34 25.5361V25.5089ZM204.537 93.4534C198.827 94.106 194.885 93.7797 189.148 93.3719L180.829 79.125L186.81 71.8928H207.528L215.059 80.6476L204.156 93.1L204.51 93.4263L204.537 93.4534ZM227.756 83.3393C222.237 88.8586 215.413 92.665 208.017 94.4594L207.419 94.1603L218.675 81.3273C223.623 78.6628 226.37 76.814 230.122 73.796L233.439 76.2702C231.834 78.7716 229.904 81.137 227.756 83.3393ZM235.043 73.5785L231.563 70.9684C232.324 65.6666 232.269 62.404 232.052 58.4616L238.74 43.1272C239.583 46.4986 240.045 50.0331 240.045 53.622C240.045 60.7183 238.305 67.5154 235.043 73.5785ZM227.756 23.932C227.756 23.932 227.838 23.9864 227.865 24.0136L227.783 24.3942L211.171 22.2191C207.827 19.3371 204.51 17.1892 199.67 15.2588V11.6699C210.274 12.0506 220.198 16.4007 227.756 23.932ZM196.571 11.6427V15.2588C191.731 17.1348 188.469 18.5215 183.955 21.5666L169.029 23.2523C176.533 16.1017 186.212 11.9962 196.571 11.6699M157.582 42.3115L164.026 56.3681L164.216 56.2865C163.863 60.528 163.754 64.5791 164.216 69.7177L160.192 71.8656C157.473 66.2376 156.06 60.0658 156.06 53.622C156.06 49.7612 156.576 45.9548 157.582 42.3115Z" fill="white"/>
</g>
<path d="M2 210H395V266C395 272.075 390.075 277 384 277H13C6.92486 277 2 272.075 2 266V210Z" fill="white"/>
</g>
<defs>
<filter id="filter0_d_1_1333" x="107" y="177" width="183" height="94" filterUnits="userSpaceOnUse" color-interpolation-filters="sRGB">
<feFlood flood-opacity="0" result="BackgroundImageFix"/>
<feColorMatrix in="SourceAlpha" type="matrix" values="0 0 0 0 0 0 0 0 0 0 0 0 0 0 0 0 0 0 127 0" result="hardAlpha"/>
<feOffset dy="7"/>
<feGaussianBlur stdDeviation="12.5"/>
<feComposite in2="hardAlpha" operator="out"/>
<feColorMatrix type="matrix" values="0 0 0 0 0 0 0 0 0 0 0 0 0 0 0 0 0 0 0.09 0"/>
<feBlend mode="normal" in2="BackgroundImageFix" result="effect1_dropShadow_1_1333"/>
<feBlend mode="normal" in="SourceGraphic" in2="effect1_dropShadow_1_1333" result="shape"/>
</filter>
<clipPath id="clip0_1_1333">
<rect width="397" height="279" rx="12" fill="white"/>
</clipPath>
<clipPath id="clip1_1_1333">
<rect width="159.38" height="269.684" fill="white" transform="translate(118.619 -101)"/>
</clipPath>
</defs>
</svg>
