<?xml version="1.0" encoding="UTF-8"?>
<svg xmlns="http://www.w3.org/2000/svg" viewBox="0 0 400 260">
  <!-- Waving Qatar flag -->
  
  <!-- Flag body with wave effect -->
  <path d="M30,20 C60,15 80,25 110,20 C150,12 180,18 225,25 C270,32 310,15 350,18 C365,19 380,22 390,25
           L390,240 C380,236 365,232 350,234 C310,238 270,255 225,248 C180,241 150,248 110,255 C80,260 60,250 30,245
           C10,242 0,245 0,245 L0,20 C0,20 10,23 30,20 Z" 
        fill="#ffffff"/>
  
  <!-- Maroon portion with wave effect -->
  <path d="M115,20 C150,12 180,18 225,25 C270,32 310,15 350,18 C365,19 380,22 390,25
           L390,240 C380,236 365,232 350,234 C310,238 270,255 225,248 C180,241 150,248 115,255
           L115,20 Z" 
        fill="#8A1538"/>
  
  <!-- The 9 triangular serrations with wave effect -->
  <path d="M115,20 C120,19.5 125,19 130,18.5 L115,38 Z" fill="#8A1538"/>
  <path d="M115,38 C120,37 125,36 130,35 L115,58 Z" fill="#8A1538"/>
  <path d="M115,58 C120,57 125,56 130,54 L115,78 Z" fill="#8A1538"/>
  <path d="M115,78 C120,77 125,75 130,73 L115,98 Z" fill="#8A1538"/>
  <path d="M115,98 C120,97 125,95 130,93 L115,118 Z" fill="#8A1538"/>
  <path d="M115,118 C120,117 125,115 130,113 L115,138 Z" fill="#8A1538"/>
  <path d="M115,138 C120,137 125,135 130,133 L115,158 Z" fill="#8A1538"/>
  <path d="M115,158 C120,157 125,155 130,153 L115,178 Z" fill="#8A1538"/>
  <path d="M115,178 C120,177 125,175 130,173 L115,198 Z" fill="#8A1538"/>
  <path d="M115,198 C120,197 125,195 130,193 L115,218 Z" fill="#8A1538"/>
  <path d="M115,218 C120,217 125,215 130,213 L115,238 Z" fill="#8A1538"/>
  <path d="M115,238 C120,241 125,244 130,247 L115,255 Z" fill="#8A1538"/>
  
  <!-- Subtle shadow for 3D effect -->
  <path d="M30,20 C60,15 80,25 110,20 C150,12 180,18 225,25 C270,32 310,15 350,18 C365,19 380,22 390,25
           L390,240 C380,236 365,232 350,234 C310,238 270,255 225,248 C180,241 150,248 110,255 C80,260 60,250 30,245
           C10,242 0,245 0,245 L0,20 C0,20 10,23 30,20 Z" 
        fill="none" 
        stroke="#00000022" 
        stroke-width="2"/>
</svg>