<svg width="36" height="36" viewBox="0 0 36 36" fill="none" xmlns="http://www.w3.org/2000/svg">
<rect x="0.5" y="0.5" width="35" height="35" rx="17.5" stroke="white"/>
<path d="M15.3496 11.25L15.374 11.2852L18.7549 16.0996L22.9961 11.2783L23.0205 11.25H24.4189L24.2969 11.3877L19.377 16.9844L24.7373 24.6182L24.8301 24.75H20.6553L20.6309 24.7139L17.0557 19.624L12.5752 24.7217L12.5498 24.75H11.1514L11.2734 24.6113L16.4346 18.7393L11.2676 11.3809L11.1758 11.25H15.3496ZM17.2002 18.0244L17.7275 18.7627L21.2949 23.7559H22.8975L18.5889 17.7266L18.0615 16.9883L14.7002 12.2832H13.0977L17.2002 18.0244Z" fill="white" stroke="white" stroke-width="0.166667"/>
</svg>
