<svg width="48" height="48" viewBox="0 0 48 48" fill="none" xmlns="http://www.w3.org/2000/svg">
<path d="M0 24C0 10.7452 10.7452 0 24 0C37.2548 0 48 10.7452 48 24C48 37.2548 37.2548 48 24 48C10.7452 48 0 37.2548 0 24Z" fill="white"/>
<path d="M20.6846 15.5625L20.7158 15.6074L24.9424 21.626L30.2432 15.5986L30.2744 15.5625H32.0215L31.8701 15.7354L25.7188 22.7305L32.4199 32.2734L32.5352 32.4375H27.3174L27.2861 32.3936L22.8184 26.0312L17.2168 32.4023L17.1855 32.4375H15.4375L15.5898 32.2646L22.042 24.9258L15.583 15.7266L15.4678 15.5625H20.6846ZM22.998 24.0312L23.6582 24.9541L28.1172 31.1953H30.1191L24.7344 23.6582L24.0752 22.7354L19.873 16.8545H17.8711L22.998 24.0312Z" fill="black" stroke="black" stroke-width="0.208333"/>
</svg>
